<?xml version="1.0" standalone="no"?>
<!DOCTYPE svg PUBLIC "-//W3C//DTD SVG 20010904//EN"
 "http://www.w3.org/TR/2001/REC-SVG-20010904/DTD/svg10.dtd">
<svg version="1.0" xmlns="http://www.w3.org/2000/svg"
 width="1170.000000pt" height="1143.000000pt" viewBox="0 0 1170.000000 1143.000000"
 preserveAspectRatio="xMidYMid meet">
<metadata>
Created by potrace 1.16, written by Peter Selinger 2001-2019
</metadata>
<g transform="translate(0.000000,1143.000000) scale(0.100000,-0.100000)"
fill="#000000" stroke="none">
<path d="M4366 9954 c-294 -58 -509 -185 -679 -399 -103 -131 -156 -236 -209
-420 -20 -70 -23 -102 -22 -250 0 -267 43 -413 180 -619 67 -101 127 -165 229
-245 44 -35 81 -65 83 -66 2 -2 -31 -51 -73 -110 -82 -114 -160 -235 -192
-300 -11 -22 -38 -74 -61 -115 -61 -112 -203 -454 -261 -630 -58 -174 -132
-461 -170 -660 -19 -99 -60 -451 -72 -625 -15 -213 -6 -603 16 -730 10 -58 13
-114 10 -156 -6 -63 -6 -66 27 -106 38 -45 49 -72 103 -248 21 -66 55 -174 75
-240 106 -334 162 -550 184 -709 47 -337 21 -496 -116 -701 -123 -184 -466
-344 -833 -389 -149 -19 -224 -25 -297 -26 -49 0 -62 -4 -90 -29 -28 -25 -33
-36 -33 -76 0 -39 5 -51 28 -71 26 -22 37 -24 130 -24 452 1 922 155 1153 378
128 124 196 238 251 423 26 88 28 106 28 269 -1 308 -51 528 -288 1262 -39
119 -48 161 -40 169 15 15 455 27 605 17 388 -27 739 -124 923 -256 129 -93
193 -164 263 -292 146 -266 171 -608 113 -1495 -34 -515 -37 -602 -22 -734 7
-59 14 -79 35 -100 37 -36 96 -36 133 2 l28 27 2 178 c1 169 21 557 43 857 6
77 11 273 13 435 2 393 -21 576 -104 795 -111 294 -353 523 -679 644 -189 70
-572 138 -830 148 -140 5 -507 -10 -571 -23 -23 -5 -26 -2 -37 47 -45 192 -35
778 19 1140 35 240 25 188 80 429 23 102 46 189 50 194 4 5 36 -22 70 -59 141
-151 437 -306 714 -374 223 -54 516 -85 736 -76 l166 7 78 -143 c170 -315 426
-778 520 -944 34 -60 91 -164 125 -230 35 -66 73 -136 85 -155 13 -20 53 -94
91 -165 37 -72 92 -170 121 -220 29 -49 53 -93 53 -96 0 -4 23 -47 51 -96 51
-86 133 -235 279 -503 40 -74 132 -241 203 -370 72 -129 157 -284 190 -345 33
-60 76 -135 96 -165 38 -56 62 -73 301 -206 47 -26 132 -75 190 -109 188 -111
292 -171 485 -278 227 -126 350 -195 509 -289 158 -94 217 -100 259 -29 20 33
25 99 38 461 12 323 22 601 40 1035 7 165 13 320 13 345 0 38 -12 67 -73 179
-40 74 -94 170 -121 215 -58 98 -221 391 -280 501 -24 44 -61 112 -83 150 -22
39 -67 119 -99 179 -33 59 -78 140 -102 180 -24 39 -54 91 -67 116 -26 50
-204 368 -310 556 -38 67 -69 123 -69 126 0 2 -30 58 -67 124 -103 185 -226
402 -270 479 -22 39 -53 95 -70 125 -16 30 -59 107 -94 170 -36 63 -78 140
-93 170 -16 30 -50 92 -77 136 -27 45 -49 85 -49 88 0 8 -75 140 -136 241 -23
39 -57 102 -76 140 -19 39 -59 109 -90 157 -30 48 -85 145 -122 217 -62 119
-74 136 -143 196 -107 94 -138 112 -227 135 -140 35 -293 24 -461 -33 -79 -27
-142 -58 -335 -163 -126 -68 -141 -74 -210 -79 -109 -8 -342 -41 -483 -70
-360 -72 -433 -92 -636 -175 -80 -33 -147 -58 -149 -55 -5 5 64 116 121 195
51 71 108 130 124 130 7 0 52 -12 100 -26 73 -22 114 -27 242 -32 177 -5 245
4 398 53 343 112 620 411 703 761 61 256 40 487 -65 726 -42 95 -66 133 -144
230 -106 131 -203 209 -366 290 -205 104 -456 142 -659 102z m364 -209 c308
-73 537 -277 645 -575 74 -206 69 -422 -17 -640 -73 -187 -244 -363 -441 -455
-129 -60 -214 -78 -372 -78 -187 0 -243 14 -434 106 -120 58 -279 220 -350
357 -53 101 -77 179 -97 314 -20 134 -9 242 36 374 113 324 351 533 685 603
103 21 238 19 345 -6z m1456 -1871 c69 -36 123 -101 201 -239 27 -49 62 -111
78 -138 15 -26 25 -53 22 -60 -3 -7 -58 -41 -123 -76 -66 -35 -162 -87 -214
-116 -52 -29 -151 -81 -220 -117 -69 -36 -190 -101 -270 -145 -80 -44 -194
-108 -255 -141 -60 -33 -156 -86 -213 -117 -56 -31 -109 -54 -117 -51 -8 3
-32 42 -54 88 -22 46 -56 109 -75 141 -19 32 -45 93 -57 135 -26 93 -22 157
15 238 33 72 146 190 206 216 25 10 61 29 80 42 165 109 515 299 635 345 57
22 120 30 211 28 80 -3 99 -7 150 -33z m-1342 -316 c-5 -7 -27 -37 -51 -66
-86 -105 -133 -227 -133 -342 1 -73 24 -215 38 -233 13 -17 108 -199 210 -400
46 -93 99 -196 118 -229 19 -33 34 -62 34 -65 0 -3 -91 -3 -202 0 -204 6 -401
31 -558 72 -96 25 -259 88 -358 140 -147 75 -309 229 -347 327 -16 43 -16 44
19 138 53 148 90 222 127 258 91 89 342 224 533 287 131 43 477 121 549 124
20 1 26 -3 21 -11z m1859 -478 c48 -87 87 -161 87 -164 0 -3 -14 -13 -31 -21
-17 -9 -56 -36 -88 -60 -32 -24 -63 -45 -69 -47 -17 -4 -197 322 -190 343 4
13 170 109 188 109 9 0 49 -63 103 -160z m-426 -163 c34 -61 77 -144 97 -184
l36 -72 -123 -68 c-251 -140 -476 -238 -496 -217 -11 11 -181 325 -181 334 0
3 24 18 53 33 28 14 102 54 162 87 61 34 157 86 215 115 58 30 114 61 125 69
11 9 27 15 35 16 9 0 40 -46 77 -113z m636 -219 c14 -24 38 -68 55 -98 16 -30
69 -125 118 -210 48 -85 114 -204 147 -265 33 -60 67 -121 77 -135 9 -14 49
-86 90 -160 40 -74 101 -184 135 -245 35 -60 96 -170 136 -244 41 -74 108
-194 149 -267 41 -74 144 -259 229 -411 85 -153 174 -314 199 -358 25 -44 83
-150 130 -235 47 -85 90 -162 97 -170 7 -8 41 -67 75 -130 34 -63 72 -133 85
-155 13 -21 22 -42 20 -46 -3 -3 -31 -9 -63 -11 -32 -3 -87 -18 -123 -33 -97
-40 -92 -41 -117 7 -12 24 -33 61 -45 83 -13 22 -49 90 -82 150 -32 61 -68
126 -80 145 -13 20 -47 83 -78 140 -91 174 -196 368 -268 497 -38 67 -69 125
-69 128 0 4 -37 73 -81 153 -45 81 -102 185 -127 232 -24 47 -64 119 -87 160
-60 106 -229 419 -315 585 -40 77 -81 152 -92 167 -10 14 -18 29 -18 33 0 4
-35 71 -79 149 -117 209 -241 436 -241 440 0 2 31 24 68 50 38 25 79 57 92 71
13 14 27 25 31 25 4 0 18 -19 32 -42z m-1469 -131 c53 -92 137 -259 133 -264
-8 -8 -178 -50 -229 -56 -47 -6 -48 -6 -72 31 -24 38 -96 178 -96 186 0 9 219
135 235 136 6 0 18 -15 29 -33z m1178 -292 c168 -305 231 -421 314 -575 42
-80 120 -224 172 -320 52 -96 125 -231 162 -300 37 -69 101 -187 143 -263 42
-76 77 -140 77 -143 0 -2 24 -46 53 -97 30 -50 77 -139 106 -197 29 -58 61
-118 71 -135 10 -16 57 -101 104 -187 82 -150 195 -357 310 -568 85 -157 83
-143 32 -204 -97 -112 -145 -146 -277 -190 -107 -36 -262 -71 -283 -63 -6 3
-20 22 -31 43 -10 22 -38 73 -61 114 -23 41 -74 138 -114 215 -40 77 -87 165
-106 196 -19 31 -34 59 -34 61 0 7 -107 204 -140 258 -15 25 -80 144 -145 265
-65 121 -146 272 -180 335 -35 63 -86 160 -115 215 -29 55 -71 132 -93 170
-23 39 -69 122 -103 185 -33 63 -105 196 -159 295 -53 99 -138 257 -187 350
-50 94 -105 195 -123 225 -18 30 -51 92 -74 138 l-41 82 57 26 c32 14 74 32
93 39 47 17 159 73 295 148 155 86 159 87 166 79 4 -4 54 -92 111 -197z m-922
-173 c0 -4 28 -57 61 -117 66 -118 159 -290 301 -560 50 -93 103 -190 118
-215 15 -25 52 -92 82 -150 30 -58 90 -167 132 -242 42 -75 76 -139 76 -142 0
-4 11 -23 24 -44 12 -20 54 -95 91 -167 37 -71 122 -229 188 -350 66 -121 182
-334 259 -473 76 -140 138 -256 138 -259 0 -2 23 -46 52 -96 28 -51 71 -130
95 -176 24 -46 54 -102 66 -123 l22 -40 -34 -26 c-19 -15 -63 -55 -98 -89
l-63 -61 -48 81 c-27 45 -81 141 -120 212 -39 72 -95 174 -124 227 -29 53 -75
138 -103 189 -121 224 -158 290 -387 700 -37 66 -93 169 -124 227 -31 59 -60
112 -64 117 -4 6 -53 93 -108 195 -101 188 -155 285 -369 670 -66 118 -141
256 -167 305 -27 50 -79 147 -117 216 -38 69 -69 128 -69 131 0 6 35 16 165
47 88 21 125 25 125 13z m2976 -2976 c-3 -122 -9 -257 -12 -302 l-7 -80 -116
-66 c-157 -88 -430 -238 -516 -282 -38 -19 -83 -43 -98 -53 -27 -17 -29 -17
-60 1 -18 10 -59 33 -92 51 -33 18 -100 56 -150 85 -49 30 -125 74 -167 98
-43 25 -78 49 -78 55 0 6 24 34 53 62 71 69 162 110 321 145 175 39 228 55
310 97 99 50 158 97 277 225 70 74 125 123 160 143 54 29 156 57 173 47 5 -3
6 -97 2 -226z m-30 -788 c-4 -79 -9 -206 -11 -282 -3 -77 -7 -141 -8 -142 -5
-5 -495 281 -491 288 5 7 44 29 276 153 75 41 154 85 175 99 66 43 66 43 59
-116z"/>
</g>
</svg>
