<?xml version="1.0" standalone="no"?>
<!DOCTYPE svg PUBLIC "-//W3C//DTD SVG 20010904//EN"
 "http://www.w3.org/TR/2001/REC-SVG-20010904/DTD/svg10.dtd">
<svg version="1.0" xmlns="http://www.w3.org/2000/svg"
 width="920.000000pt" height="920.000000pt" viewBox="0 0 920.000000 920.000000"
 preserveAspectRatio="xMidYMid meet">

<g transform="translate(0.000000,920.000000) scale(0.100000,-0.100000)"
fill="#000000" stroke="none">
<path d="M5215 6528 c-177 -102 -218 -122 -204 -100 12 19 11 24 -3 38 -14 15
-21 13 -77 -17 -77 -43 -85 -64 -47 -134 l28 -51 -188 -271 -188 -271 -185
-114 c-102 -64 -192 -119 -199 -123 -8 -4 -2 10 12 31 45 67 103 196 122 274
11 46 19 112 19 170 0 80 -4 103 -24 143 -57 117 -167 100 -268 -41 -56 -78
-83 -142 -115 -266 -27 -108 -22 -250 12 -318 l23 -46 -32 -51 c-33 -51 -75
-93 -281 -285 -318 -296 -530 -566 -561 -716 -12 -59 -64 -150 -280 -490 -197
-310 -143 -261 -454 -411 -148 -71 -314 -151 -367 -176 -62 -29 -98 -52 -98
-61 0 -9 29 -69 65 -133 36 -65 65 -122 65 -126 0 -4 -324 -8 -720 -8 l-720 0
0 -21 0 -22 2143 4 c1178 2 2640 4 3249 4 609 0 1121 3 1138 6 32 7 42 34 13
34 -10 0 -229 0 -488 0 -258 0 -1030 0 -1714 -1 l-1244 0 -11 23 c-11 22 -16
23 -173 26 l-162 2 103 158 c56 86 147 225 201 307 54 83 100 159 103 171 3
16 -30 53 -152 169 -170 162 -291 294 -387 423 l-62 83 16 53 c20 62 67 143
145 246 57 76 497 524 562 572 l35 26 400 -25 401 -25 119 67 c66 37 218 119
338 182 119 63 221 122 226 130 4 9 11 12 14 7 20 -34 252 -450 357 -644 70
-129 222 -404 337 -610 207 -373 208 -375 242 -377 19 -2 36 -5 39 -8 9 -9 42
16 56 44 8 15 18 51 22 80 4 31 13 55 21 58 17 7 103 -16 103 -27 0 -30 98 32
106 67 4 15 11 30 15 33 8 6 0 20 -213 390 -74 129 -188 327 -253 440 -65 113
-186 322 -268 465 -83 143 -170 294 -193 335 -267 464 -432 744 -439 746 -6 2
-41 -15 -80 -38z m-133 -444 c114 -203 173 -314 155 -291 -17 20 -55 23 -63 4
-3 -8 20 -58 51 -111 31 -54 55 -99 53 -100 -2 -2 -61 -33 -133 -71 -71 -37
-212 -112 -313 -167 l-183 -100 -342 22 c-188 12 -343 23 -345 25 -4 4 -13 -1
253 162 403 248 342 194 527 463 214 312 229 331 241 327 5 -1 50 -75 99 -163z
m-869 19 c41 -46 46 -180 12 -314 -47 -181 -183 -356 -242 -308 -47 40 -58
185 -23 322 26 103 90 226 146 277 47 43 81 51 107 23z m-203 -703 c-20 -13
-33 -13 -25 0 3 6 14 10 23 10 15 0 15 -2 2 -10z m-826 -1260 c33 -41 150
-166 262 -276 112 -112 199 -205 194 -210 -18 -19 -430 -655 -430 -664 0 -11
20 -11 -598 -11 -460 -1 -464 -1 -478 20 -11 15 -26 21 -54 21 -38 0 -38 1
-94 98 -31 54 -56 101 -56 104 0 2 89 47 198 99 108 51 269 129 357 174 l160
80 113 175 c62 96 161 253 219 349 l107 173 20 -28 c12 -16 48 -63 80 -104z"/>
<path d="M6750 3389 c0 -15 44 -71 152 -194 48 -55 104 -122 125 -150 36 -48
63 -67 63 -45 0 5 -5 10 -11 10 -12 0 -38 29 -39 43 0 5 5 5 12 1 7 -4 8 -3 4
5 -4 6 -11 9 -16 6 -4 -3 -14 17 -21 45 -7 27 -15 50 -19 50 -3 0 -6 9 -7 21
-1 11 -13 42 -27 69 -14 26 -22 50 -19 54 4 3 0 6 -7 6 -10 0 -11 3 -3 11 16
16 29 4 36 -31 4 -16 11 -30 17 -30 10 0 1 33 -22 77 -9 19 -19 22 -60 21 -27
0 -54 4 -61 11 -6 6 -21 11 -33 11 -13 0 -26 5 -29 10 -8 14 -35 13 -35 -1z"/>
<path d="M6998 3238 c-6 -17 37 -121 52 -126 8 -3 6 6 -4 26 -9 17 -16 37 -16
45 0 8 -6 20 -14 27 -8 6 -12 18 -9 26 3 8 3 14 0 14 -3 0 -7 -6 -9 -12z"/>
<path d="M7040 3096 c0 -2 7 -7 16 -10 8 -3 12 -2 9 4 -6 10 -25 14 -25 6z"/>
</g>
</svg>
